<?xml version="1.0" encoding="UTF-8" standalone="no"?><!DOCTYPE svg PUBLIC "-//W3C//DTD SVG 1.1//EN" "http://www.w3.org/Graphics/SVG/1.1/DTD/svg11.dtd"><svg width="100%" height="100%" viewBox="0 0 2000 2000" version="1.1" xmlns="http://www.w3.org/2000/svg" xmlns:xlink="http://www.w3.org/1999/xlink" xml:space="preserve" xmlns:serif="http://www.serif.com/" style="fill-rule:evenodd;clip-rule:evenodd;stroke-linejoin:round;stroke-miterlimit:2;"><g><path d="M308.593,980.222c-23.554,-35.801 -15.289,-89.908 -14.962,-132.537c0.328,-42.946 0.073,-85.98 0.073,-128.934c0,-75.314 -9.016,-183.917 6.464,-254.227c71.02,-5.099 63.493,1.859 62.414,77.356c-1.285,89.873 6.475,390.616 -6.863,435.658l-47.126,2.684Zm1441.41,-531.003l0,523.192c-7.67,62.183 -37.177,51.027 -105.468,51.027c-13.824,26.126 -19.55,35.288 -35.157,58.594c-68.083,-0 -86.587,0.87 -140.625,-11.719c-17.504,-75.134 -11.718,-165.696 -11.718,-257.812l-105.469,-0c-8.643,37.096 -12.203,86.429 -21.481,119.144c-11.468,40.434 -28.313,65.742 -37.113,103.512l-37.306,-0c-13.333,-59.829 85.788,-197.338 30.752,-320.732c-40.034,-65.994 -238.324,-34.26 -242.341,-32.596c-41.243,17.09 -47.884,75.668 -12.253,98.151c36.981,23.335 71.734,-1.65 116.747,22.831c-11.954,42.934 -61.463,30.261 -106.78,86.657c-66.632,82.919 2.742,111.913 -65.225,135.64c-45.942,-71.722 26.759,-158.157 53.585,-195.88c-78.355,-37.27 -226.084,-21.568 -321.923,-18.335c-0,379.311 66.182,153.925 64.288,376.175c-1.136,133.341 -8.757,304.533 2.672,434.027c-72.043,54.786 -56.749,-40.221 -56.45,-140.61c0.243,-82.036 -0.206,-164.089 0.031,-246.125c0.585,-201.706 -5.776,-104.715 -42.014,-204.08c-22.241,-60.989 -16.595,-139.507 -16.595,-217.779l-117.188,-0c0,92.116 5.785,182.678 -11.719,257.812c-54.037,12.589 -72.541,11.719 -140.625,11.719c-15.607,-23.306 -21.332,-32.468 -35.156,-58.594c-71.919,-0 -99.225,9.49 -105.469,-53.295l-0,-520.924c14.237,-9.533 23.063,-19.669 33.857,-24.735c2.503,-1.174 5.57,-2.474 8.24,-3.481l55.814,-14.498c26.63,-13.328 64.08,-103.587 195.058,-15.879c0,58.399 14.027,96.618 -24.21,117.187c-40.872,-44.862 -5.449,-35.208 -30.566,-97.567c-108.58,-14.605 -82.596,-5.492 -82.596,261.63c0,89.401 -10.633,279.875 3.913,352.79c24.39,12.287 23.398,14.184 84.752,8.443c14.224,-110.476 -25.434,-420.355 23.244,-490.14c38.269,25.12 25.463,17.356 25.463,82.032l105.469,-0c0,-121.842 45.403,-161.001 138.993,-139.282c52.391,12.159 8.662,13.42 65.175,-8.113c63.992,-24.381 24.581,-13.652 75.852,-3.201c65.269,13.307 7.672,16.488 58.645,-14.441c66.38,-40.277 80.645,-8.695 130.085,24.412c146.21,-77.365 152.343,48.763 152.343,140.625l187.501,-0l0,-234.375c127.573,-85.427 167.399,-1.583 187.73,11.488l34.665,12.209c49.83,13.255 -0.222,-12.51 70.573,34.896Zm-244.46,584.035c-10.392,-81.648 -15.964,-568.178 6.123,-623.153c115.116,-15.115 83.247,33.442 82.866,144.561c-0.229,67.016 -16.307,185.502 12.675,231.914c53.282,-21.458 31.262,-130.723 30.996,-185.078c-0.76,-155.803 -10.115,-142.248 61.486,-136.901c10.718,47.616 21.598,448.571 -8.455,517.456l-46.699,-7.076c-17.783,-55.963 11.96,-93.279 -23.438,-136.197c-50.525,22.232 -21.373,139.304 -30.4,186.048c-3.025,1.508 -7.06,2.857 -9.517,3.506c-13.226,3.491 2.71,12.229 -75.637,4.92Zm-703.272,-323.885c47.929,-11.933 45.22,66.063 159.747,-0.955l3.95,56.956l-423.981,0.405l0.253,-87.842l71.045,-0c144.346,-0 27.085,71.74 188.986,31.436Zm561.014,56.306c-33.694,-18.348 -7.872,12.271 -24.771,-32.668c-3.758,-9.992 -11.518,-42.62 -16.245,-54.928l135.644,-0l-0.146,87.596l-94.482,0Zm-519.617,-164.112c0,-34.752 5.487,-58.051 17.342,-79.458c67.879,-14.684 80.909,2.263 80.909,67.739c-0,141.157 -98.251,135.856 -98.251,11.719Zm-127.962,71.468c-31.5,-75.648 -30.401,-176.588 77.426,-135.692l6.102,64.224c8.693,74.811 -29.49,82.286 -83.528,71.468Zm504.152,-125.563c20.609,21.551 13.312,47.655 8.862,83.594c-23.95,8.239 -79.746,21.44 -101.809,-3.272l7.23,-91.926c30.118,-24.391 73.195,-47.489 85.717,11.604Zm-233.612,30.658c0,-49.742 0.307,-52.051 25.449,-84.205l46.902,2.833c34.834,39.652 27.891,64.662 23.234,128.247c-34.345,15.059 -56.814,15.643 -94.701,35.394l-0.884,-82.269Z"/><path d="M775.184,1621.1l363.44,0c1.319,-105.399 0.976,-210.99 0.819,-316.41c-0.151,-101.361 -7.762,-224.214 94.931,-231.449c25.249,-21.781 16.324,-4.803 21.288,-38.079c-13.333,-59.829 85.788,-197.338 30.752,-320.732c-40.034,-65.994 -238.324,-34.26 -242.341,-32.596c-41.243,17.09 -47.884,75.668 -12.253,98.151c36.981,23.335 71.734,-1.65 116.747,22.831c-11.954,42.934 -61.463,30.261 -106.78,86.657c-66.632,82.919 2.742,111.913 -65.225,135.64c-45.942,-71.722 26.759,-158.157 53.585,-195.88c-78.355,-37.27 -226.084,-21.568 -321.923,-18.335c-0,379.311 66.182,153.925 64.288,376.175c-1.136,133.341 -8.757,304.533 2.672,434.027Z" style="fill:#f1dbce;"/><path d="M1505.54,1033.25c78.347,7.309 62.411,-1.429 75.637,-4.92c2.457,-0.649 6.492,-1.998 9.517,-3.506c9.027,-46.744 -20.125,-163.816 30.4,-186.048c35.398,42.918 5.655,80.234 23.438,136.197l46.699,7.076c30.053,-68.885 19.173,-469.84 8.455,-517.456c-71.601,-5.347 -62.246,-18.902 -61.486,136.901c0.266,54.355 22.286,163.62 -30.996,185.078c-28.982,-46.412 -12.904,-164.898 -12.675,-231.914c0.381,-111.119 32.25,-159.676 -82.866,-144.561c-22.087,54.975 -16.515,541.505 -6.123,623.153Z" style="fill:#9d97a1;"/><path d="M517.505,542.969l1.253,-35.156c-40.872,-44.862 -5.449,-35.208 -30.566,-97.567c-108.58,-14.605 -82.596,-5.492 -82.596,261.63c0,89.401 -10.633,279.875 3.913,352.79c24.39,12.287 23.398,14.184 84.752,8.443c14.224,-110.476 -25.434,-420.355 23.244,-490.14Z" style="fill:#9f99a3;"/><path d="M308.593,980.222l47.126,-2.684c13.338,-45.042 5.578,-345.785 6.863,-435.658c1.079,-75.497 8.606,-82.455 -62.414,-77.356c-15.48,70.31 -6.464,178.913 -6.464,254.227c0,42.954 0.255,85.988 -0.073,128.934c-0.327,42.629 -8.592,96.736 14.962,132.537Z" style="fill:#9d97a1;"/><path d="M1138.62,1621.1c71.172,87.896 48.875,-157.691 48.875,-234.376c0,-132.151 -23.834,-226.053 58.594,-281.25c-8.241,-31.075 1.113,-10.183 -11.719,-32.233c-102.693,7.235 -95.082,130.088 -94.931,231.449c0.157,105.42 0.5,211.011 -0.819,316.41Z"/><path d="M541.983,765.775l423.981,-0.405l-3.95,-56.956c-114.527,67.018 -111.818,-10.978 -159.747,0.955c-161.901,40.304 -44.64,-31.436 -188.986,-31.436l-71.045,-0l-0.253,87.842Z" style="fill:#ebe6e3;"/><path d="M843.664,601.563c0,124.137 98.251,129.438 98.251,-11.719c-0,-65.476 -13.03,-82.423 -80.909,-67.739c-11.855,21.407 -17.342,44.706 -17.342,79.458Z" style="fill:#f1ddd0;"/><path d="M986.242,578.126l0.884,82.269c37.887,-19.751 60.356,-20.335 94.701,-35.394c4.657,-63.585 11.6,-88.595 -23.234,-128.247l-46.902,-2.833c-25.142,32.154 -25.449,34.463 -25.449,84.205Z" style="fill:#f1dbce;"/><path d="M715.702,673.031c54.038,10.818 92.221,3.343 83.528,-71.468l-6.102,-64.224c-107.827,-40.896 -108.926,60.044 -77.426,135.692Z" style="fill:#f1dbce;"/><path d="M1363.28,765.675l94.482,0l0.146,-87.596l-135.644,-0c4.727,12.308 12.487,44.936 16.245,54.928c16.899,44.939 -8.923,14.32 24.771,32.668Z" style="fill:#ece8e6;"/><path d="M1126.91,627.79l93.552,0l-0.605,-80.322c-12.522,-59.093 -55.599,-35.995 -85.717,-11.604l-7.23,91.926Z" style="fill:#f1dbce;"/><path d="M1126.91,627.79c22.063,24.712 77.859,11.511 101.809,3.272c4.45,-35.939 11.747,-62.043 -8.862,-83.594l0.605,80.322l-93.552,0Z" style="fill:#776d66;"/></g></svg>